<svg xmlns="http://www.w3.org/2000/svg" viewBox="0 0 1200 900" width="1200" height="900"><rect width="1200" height="900" fill="#fbfaf8"/><g transform="rotate(-14 600 450)"><ellipse cx="600" cy="450" rx="90" ry="60" fill="none" stroke="#5b3df5" stroke-width="1.25" opacity="0.55"/><ellipse cx="600" cy="450" rx="152" ry="104" fill="none" stroke="#5b3df5" stroke-width="1.25" opacity="0.52"/><ellipse cx="600" cy="450" rx="214" ry="148" fill="none" stroke="#5b3df5" stroke-width="1.25" opacity="0.49"/><ellipse cx="600" cy="450" rx="276" ry="192" fill="none" stroke="#5b3df5" stroke-width="1.25" opacity="0.46"/><ellipse cx="600" cy="450" rx="338" ry="236" fill="none" stroke="#5b3df5" stroke-width="1.25" opacity="0.43"/><ellipse cx="600" cy="450" rx="400" ry="280" fill="none" stroke="#5b3df5" stroke-width="1.25" opacity="0.4"/><ellipse cx="600" cy="450" rx="462" ry="324" fill="none" stroke="#5b3df5" stroke-width="1.25" opacity="0.37"/><ellipse cx="600" cy="450" rx="524" ry="368" fill="none" stroke="#5b3df5" stroke-width="1.25" opacity="0.34"/><ellipse cx="600" cy="450" rx="586" ry="412" fill="none" stroke="#5b3df5" stroke-width="1.25" opacity="0.31"/><ellipse cx="600" cy="450" rx="648" ry="456" fill="none" stroke="#5b3df5" stroke-width="1.25" opacity="0.28"/><ellipse cx="600" cy="450" rx="710" ry="500" fill="none" stroke="#5b3df5" stroke-width="1.25" opacity="0.25"/><ellipse cx="600" cy="450" rx="772" ry="544" fill="none" stroke="#5b3df5" stroke-width="1.25" opacity="0.22"/><ellipse cx="600" cy="450" rx="834" ry="588" fill="none" stroke="#5b3df5" stroke-width="1.25" opacity="0.19"/><ellipse cx="600" cy="450" rx="896" ry="632" fill="none" stroke="#5b3df5" stroke-width="1.25" opacity="0.16"/><ellipse cx="600" cy="450" rx="958" ry="676" fill="none" stroke="#5b3df5" stroke-width="1.25" opacity="0.13"/><ellipse cx="600" cy="450" rx="1020" ry="720" fill="none" stroke="#5b3df5" stroke-width="1.25" opacity="0.1"/></g><circle cx="600" cy="450" r="46" fill="#5b3df5" opacity=".9"/><circle cx="600" cy="450" r="120" fill="none" stroke="#ff7a45" stroke-width="2" opacity=".5"/></svg>
